# xmcd
#
# Track frame offsets: 
#        150
#        12398
#        22168
#        32089
#        43491
#        55010
#        66587
#        78993
#        89550
#        100791
#        111704
#        124537
#        136576
#        146487
#        159112
#        169952
#        180052
#        190978
#        200667
#        210379
#        223886
#        235513
#        245112
#        257508
#        269719
#        280603
#        290994
#        303799
#        314744
#        326048
#        338349
#
# Disc length: 4680 seconds
#
# Revision: 3
# Processed by: cddbd v1.5.2PL0 Copyright (c) Steve Scherf et al.
# Submitted via: ExactAudioCopyFreeDBPlugin 1.0
#
DISCID=d412461f
DTITLE=James Brown - 5 Classic Albums plus Bonus Rare and Live Tracks
DYEAR=2011
DGENRE=Soul
TTITLE0=Please, Please, Please
TTITLE1=Chonnie-On-Chon
TTITLE2=Hold My Baby's Hand
TTITLE3=I Feel That Old Feeling Coming On
TTITLE4=Just Won't Do Right
TTITLE5=Baby Cries Over the Ocean
TTITLE6=I Don't Know
TTITLE7=Tell Me What I Did Wrong
TTITLE8=Try Me
TTITLE9=That Dood It
TTITLE10=Begging, Begging
TTITLE11=I Walked Alone
TTITLE12=No, No, No, No
TTITLE13=That's When I Lost My Heart
TTITLE14=Let's Make It
TTITLE15=Love or Game
TTITLE16=There Must Be a Reason
TTITLE17=Strange Things Happen
TTITLE18=Messing with the Blues
TTITLE19=Why Do You Do Me
TTITLE20=I've Got to Cry
TTITLE21=Fine Old Foxy Self
TTITLE22=I Want You So Bad
TTITLE23=It Was You
TTITLE24=I've Got to Change
TTITLE25=Can't Be the Same
TTITLE26=It Hurts to Tell You
TTITLE27=I Won't Plead No More
TTITLE28=You're Mine, You're Mine
TTITLE29=Gonna Try
TTITLE30=Don't Let it Happen to Me
EXTD=
EXTT0=
EXTT1=
EXTT2=
EXTT3=
EXTT4=
EXTT5=
EXTT6=
EXTT7=
EXTT8=
EXTT9=
EXTT10=
EXTT11=
EXTT12=
EXTT13=
EXTT14=
EXTT15=
EXTT16=
EXTT17=
EXTT18=
EXTT19=
EXTT20=
EXTT21=
EXTT22=
EXTT23=
EXTT24=
EXTT25=
EXTT26=
EXTT27=
EXTT28=
EXTT29=
EXTT30=
PLAYORDER=
